<svg width="50" height="50" viewBox="0 0 50 50" fill="none" xmlns="http://www.w3.org/2000/svg">
<path d="M29.1663 4.1665H12.4997C11.3946 4.1665 10.3348 4.60549 9.5534 5.38689C8.77199 6.16829 8.33301 7.2281 8.33301 8.33317V41.6665C8.33301 42.7716 8.77199 43.8314 9.5534 44.6128C10.3348 45.3942 11.3946 45.8332 12.4997 45.8332H37.4997C38.6047 45.8332 39.6645 45.3942 40.446 44.6128C41.2274 43.8314 41.6663 42.7716 41.6663 41.6665V16.6665L29.1663 4.1665Z" stroke="white" stroke-width="2" stroke-linecap="round" stroke-linejoin="round"/>
<path d="M29.167 4.1665V16.6665H41.667" stroke="white" stroke-width="2" stroke-linecap="round" stroke-linejoin="round"/>
<path d="M33.3337 27.0835H16.667" stroke="white" stroke-width="2" stroke-linecap="round" stroke-linejoin="round"/>
<path d="M33.3337 35.4165H16.667" stroke="white" stroke-width="2" stroke-linecap="round" stroke-linejoin="round"/>
<path d="M20.8337 18.75H18.7503H16.667" stroke="white" stroke-width="2" stroke-linecap="round" stroke-linejoin="round"/>
</svg>
