<svg width="45" height="45" viewBox="0 0 45 45" fill="none" xmlns="http://www.w3.org/2000/svg">
<path d="M37.9423 2H5.05769C3.4525 2.00495 1.91435 2.69794 0.779302 3.92758C-0.355748 5.15721 -0.995433 6.82354 -1 8.5625V31.0625C-0.995433 32.8015 -0.355748 34.4678 0.779302 35.6974C1.91435 36.9271 3.4525 37.6201 5.05769 37.625H9.38462V47L19.5226 37.843C19.6783 37.7021 19.8747 37.625 20.0775 37.625H37.9423C39.5475 37.6201 41.0856 36.9271 42.2207 35.6974C43.3557 34.4678 43.9954 32.8015 44 31.0625V8.5625C43.9954 6.82354 43.3557 5.15721 42.2207 3.92758C41.0856 2.69794 39.5475 2.00495 37.9423 2Z" stroke="white" stroke-width="2" stroke-linejoin="round"/>
</svg>
