<svg width="55" height="56" viewBox="0 0 55 56" fill="none" xmlns="http://www.w3.org/2000/svg">
<path d="M27.5 48.625C38.8909 48.625 48.125 39.3909 48.125 28C48.125 16.6091 38.8909 7.375 27.5 7.375C16.1091 7.375 6.875 16.6091 6.875 28C6.875 39.3909 16.1091 48.625 27.5 48.625Z" stroke="white" stroke-width="2" stroke-linecap="round" stroke-linejoin="round"/>
<path d="M27.5 34.875C32.2462 34.875 36.0938 31.0274 36.0938 26.2812C36.0938 21.5351 32.2462 17.6875 27.5 17.6875C22.7538 17.6875 18.9062 21.5351 18.9062 26.2812C18.9062 31.0274 22.7538 34.875 27.5 34.875Z" stroke="white" stroke-width="2" stroke-linecap="round" stroke-linejoin="round"/>
<path d="M13.707 43.3397C15.0002 40.7926 16.9734 38.6532 19.408 37.1589C21.8426 35.6645 24.6434 34.8735 27.5 34.8735C30.3566 34.8735 33.1574 35.6645 35.592 37.1589C38.0266 38.6532 39.9998 40.7926 41.293 43.3397" stroke="white" stroke-width="2" stroke-linecap="round" stroke-linejoin="round"/>
</svg>
