<svg width="33" height="33" viewBox="0 0 33 33" fill="none" xmlns="http://www.w3.org/2000/svg">
<path d="M16.5 22.6875C22.1954 22.6875 26.8125 18.0704 26.8125 12.375C26.8125 6.67956 22.1954 2.0625 16.5 2.0625C10.8046 2.0625 6.1875 6.67956 6.1875 12.375C6.1875 18.0704 10.8046 22.6875 16.5 22.6875Z" stroke="black" stroke-width="2" stroke-linecap="round" stroke-linejoin="round"/>
<path d="M16.5 18.5625C19.9173 18.5625 22.6875 15.7923 22.6875 12.375C22.6875 8.95774 19.9173 6.1875 16.5 6.1875C13.0827 6.1875 10.3125 8.95774 10.3125 12.375C10.3125 15.7923 13.0827 18.5625 16.5 18.5625Z" stroke="black" stroke-width="2" stroke-linecap="round" stroke-linejoin="round"/>
<path d="M22.6875 20.625V30.9375L16.5 27.8438L10.3125 30.9375V20.625" stroke="black" stroke-width="2" stroke-linecap="round" stroke-linejoin="round"/>
</svg>
