<svg width="52" height="52" viewBox="0 0 52 52" fill="none" xmlns="http://www.w3.org/2000/svg">
<path d="M19.5 22.75H35.75" stroke="white" stroke-width="2" stroke-linecap="round" stroke-linejoin="round"/>
<path d="M19.5 29.25H35.75" stroke="white" stroke-width="2" stroke-linecap="round" stroke-linejoin="round"/>
<path d="M6.5 40.625C7.36195 40.625 8.1886 40.2826 8.7981 39.6731C9.40759 39.0636 9.75 38.237 9.75 37.375V13C9.75 12.569 9.92121 12.1557 10.226 11.851C10.5307 11.5462 10.944 11.375 11.375 11.375H43.875C44.306 11.375 44.7193 11.5462 45.024 11.851C45.3288 12.1557 45.5 12.569 45.5 13V37.375C45.5 38.237 45.1576 39.0636 44.5481 39.6731C43.9386 40.2826 43.112 40.625 42.25 40.625H6.5Z" stroke="white" stroke-width="2" stroke-linecap="round" stroke-linejoin="round"/>
<path d="M6.5 40.625C5.63805 40.625 4.8114 40.2826 4.2019 39.6731C3.59241 39.0636 3.25 38.237 3.25 37.375V17.875" stroke="white" stroke-width="2" stroke-linecap="round" stroke-linejoin="round"/>
</svg>
