<svg width="33" height="33" viewBox="0 0 33 33" fill="none" xmlns="http://www.w3.org/2000/svg">
<path d="M4.125 26.8125V8.25C4.125 7.9765 4.23365 7.71419 4.42705 7.5208C4.62044 7.3274 4.88275 7.21875 5.15625 7.21875H12.027C12.2499 7.21967 12.4668 7.29194 12.6457 7.425L16.2293 10.1063C16.4082 10.2393 16.6251 10.3116 16.848 10.3125H25.7812C26.0548 10.3125 26.3171 10.4211 26.5105 10.6145C26.7039 10.8079 26.8125 11.0702 26.8125 11.3438V14.4375" stroke="black" stroke-width="2" stroke-linecap="round" stroke-linejoin="round"/>
<path d="M4.125 26.8125L7.99219 17.1445C8.06761 16.9534 8.19908 16.7896 8.36932 16.6745C8.53957 16.5595 8.74063 16.4987 8.94609 16.5H15.1594C15.3603 16.4979 15.5567 16.4398 15.7266 16.3324L18.3047 14.6051C18.4745 14.4977 18.6709 14.4396 18.8719 14.4375H29.5066C29.6697 14.4375 29.8305 14.4761 29.9757 14.5503C30.1209 14.6245 30.2465 14.732 30.3421 14.8641C30.4377 14.9962 30.5006 15.1491 30.5257 15.3102C30.5508 15.4713 30.5373 15.6361 30.4863 15.791L26.8125 26.8125H4.125Z" stroke="black" stroke-width="2" stroke-linecap="round" stroke-linejoin="round"/>
</svg>
